<svg xmlns="http://www.w3.org/2000/svg" id="Capa_1" height="512" viewBox="0 0 512 512" width="512"><g><path d="m45 301c2.903 0 5.74-.287 8.491-.814l63.767 107.887c-1.959 2.228-3.713 4.665-5.229 7.292-12.406 21.489-5.018 49.065 16.471 61.471 21.453 12.385 48.99 5.146 61.471-16.471 1.744-3.02 3.083-6.163 4.06-9.365h123.938c.978 3.202 2.316 6.345 4.06 9.365 12.431 21.532 39.923 28.912 61.471 16.471 21.488-12.406 28.877-39.982 16.471-61.471-1.517-2.627-3.271-5.065-5.229-7.292l63.767-107.887c2.751.527 5.588.814 8.491.814 24.813 0 45-20.187 45-45s-20.187-45-45-45c-2.903 0-5.74.287-8.491.814l-63.767-107.887c1.959-2.228 3.713-4.665 5.229-7.292 12.406-21.489 5.018-49.065-16.471-61.471-21.537-12.434-49.034-5.071-61.471 16.471-1.744 3.02-3.083 6.163-4.06 9.365h-123.938c-.978-3.202-2.316-6.345-4.06-9.365-12.434-21.537-39.928-28.908-61.471-16.471-21.488 12.406-28.877 39.982-16.471 61.471 1.517 2.627 3.271 5.065 5.229 7.292l-63.767 107.887c-2.751-.528-5.588-.814-8.491-.814-24.813 0-45 20.187-45 45s20.187 45 45 45zm98.502-182.514c5.324.91 10.343.904 15.726-.101l47.065 81.519c-11.93 10.583-20.481 24.892-23.784 41.096h-95.089c-1.832-5.166-4.581-9.898-8.053-14.005zm224.996 0 64.135 108.509c-3.471 4.107-6.22 8.839-8.053 14.005h-95.089c-3.302-16.203-11.854-30.512-23.784-41.096l47.065-81.519c5.397 1.008 10.418 1.007 15.726.101zm.01 275.011c-5.264-.9-10.578-.856-15.741.109l-47.06-81.51c11.93-10.583 20.481-24.892 23.784-41.096h95.089c1.832 5.166 4.581 9.898 8.053 14.005zm-225.016 0-64.125-108.492c3.471-4.107 6.22-8.839 8.053-14.005h95.089c3.302 16.203 11.854 30.512 23.784 41.096l-47.06 81.51c-5.163-.965-10.477-1.009-15.741-.109zm112.508-182.497c24.813 0 45 20.187 45 45s-20.187 45-45 45-45-20.187-45-45 20.187-45 45-45zm-70.8 197.629 47.056-81.503c7.468 2.5 15.446 3.874 23.744 3.874s16.276-1.375 23.744-3.874l47.056 81.503c-3.178 3.725-5.688 7.912-7.486 12.371h-126.628c-1.798-4.459-4.308-8.646-7.486-12.371zm141.6-305.258-47.056 81.503c-7.468-2.499-15.446-3.874-23.744-3.874s-16.276 1.375-23.744 3.874l-47.056-81.503c3.178-3.725 5.688-7.912 7.486-12.371h126.627c1.799 4.459 4.309 8.646 7.487 12.371zm-162.81 341.994c-4.146 7.179-13.309 9.636-20.49 5.491-7.163-4.136-9.626-13.328-5.49-20.491 4.116-7.128 13.293-9.644 20.49-5.49 7.163 4.135 9.626 13.327 5.49 20.49zm204.51 5.491c-7.181 4.144-16.343 1.691-20.49-5.49-4.136-7.163-1.673-16.355 5.49-20.49 7.163-4.136 16.354-1.673 20.49 5.49 4.136 7.162 1.673 16.354-5.49 20.49zm113.5-194.856c0 8.271-6.729 15-15 15s-15-6.729-15-15 6.729-15 15-15 15 6.729 15 15zm-133.99-189.366c4.137-7.164 13.295-9.644 20.49-5.49 7.163 4.136 9.626 13.327 5.49 20.49-4.146 7.179-13.309 9.636-20.49 5.49-7.163-4.135-9.626-13.327-5.49-20.49zm-204.51-5.49c7.193-4.153 16.349-1.681 20.49 5.49 4.136 7.163 1.673 16.355-5.49 20.49-7.18 4.145-16.343 1.69-20.49-5.49-4.136-7.163-1.673-16.354 5.49-20.49zm-98.5 179.856c8.271 0 15 6.729 15 15s-6.729 15-15 15-15-6.729-15-15 6.729-15 15-15z"/></g></svg>