<svg xmlns="http://www.w3.org/2000/svg" id="Capa_1" height="512" viewBox="0 0 512 512" width="512"><g><path d="m463.204 405.135c-17.924-22.632-43.273-38.737-71.375-45.35l-70.829-16.665v-13.305c26.271-18.067 44.696-46.752 49.022-79.815h10.978c27.57 0 50-22.43 50-50 0-20.461-12.359-38.081-30-45.813v-9.187c0-79.953-65.047-145-145-145s-145 65.047-145 145v9.187c-17.641 7.732-30 25.352-30 45.813 0 27.57 22.43 50 50 50h10.978c4.326 33.062 22.751 61.748 49.022 79.815v13.305l-70.828 16.666c-28.103 6.612-53.451 22.718-71.375 45.35-17.925 22.631-27.797 50.994-27.797 79.864v12c0 8.284 6.716 15 15 15h440c8.284 0 15-6.716 15-15v-12c0-28.87-9.872-57.233-27.796-79.865zm-82.204-185.135h-10v-40h10c11.028 0 20 8.972 20 20s-8.972 20-20 20zm-125-190c63.411 0 115 51.589 115 115v5h-15c-32.543 0-62.75-16.166-80.801-43.243l-6.719-10.077c-2.781-4.173-7.465-6.68-12.48-6.68s-9.699 2.507-12.48 6.68l-6.719 10.077c-18.051 27.077-48.258 43.243-80.801 43.243h-15v-5c0-63.411 51.589-115 115-115zm-145 170c0-11.028 8.972-20 20-20h10v40h-10c-11.028 0-20-8.972-20-20zm60 35v-55.881c33.525-3.956 64.083-21.065 85-47.757 20.917 26.691 51.475 43.801 85 47.757v55.881c0 46.869-38.131 85-85 85s-85-38.131-85-85zm85 115c12.2 0 23.959-1.917 35-5.452v30.452c0 19.299-15.701 35-35 35s-35-15.701-35-35v-30.452c11.041 3.535 22.8 5.452 35 5.452zm145 132v-35c0-8.284-6.716-15-15-15s-15 6.716-15 15v35h-230v-35c0-8.284-6.716-15-15-15s-15 6.716-15 15v35h-59.956c1.325-44.706 32.201-82.707 75.999-93.012l63.957-15.049v1.061c0 35.841 29.159 65 65 65s65-29.159 65-65v-1.061l63.957 15.049c43.797 10.305 74.674 48.306 75.999 93.012z"/><path d="m256 289.977c12.584 0 25.168-4.79 34.749-14.37 5.858-5.857 5.858-15.354 0-21.213s-15.355-5.858-21.213 0c-7.464 7.463-19.607 7.463-27.071 0-5.858-5.859-15.355-5.857-21.213 0-5.857 5.858-5.857 15.355 0 21.213 9.58 9.58 22.164 14.37 34.748 14.37z"/></g></svg>